<svg width="150" height="150" viewBox="0 0 150 150" fill="none" xmlns="http://www.w3.org/2000/svg">
<path fill-rule="evenodd" clip-rule="evenodd" d="M150 75C150 116.462 116.462 150 75 150C33.5377 150 0 116.462 0 75C0 33.5377 33.5377 0 75 0C116.462 0 150 33.5377 150 75ZM110.377 85.8962C112.359 83.066 114.906 79.2453 117.17 73.3019C117.453 72.1698 116.038 71.8868 114.906 71.7453C111.226 71.4623 106.274 74.8585 106.274 74.8585C106.274 74.8585 102.594 76.8396 102.594 75.1415C102.594 72.5943 104.717 69.1981 107.123 67.9245C107.198 67.8866 107.264 67.8487 107.325 67.8135C107.492 67.7173 107.623 67.6415 107.83 67.6415C108.255 67.5 108.821 67.3585 109.387 67.3585H109.528C110.519 67.3585 111.792 67.5 112.925 68.4906C115.613 70.7547 118.868 66.7925 116.887 64.8113C115.613 63.5377 112.642 62.2642 110.519 62.1226H110.094H109.953C109.67 62.1226 109.387 62.1226 109.104 62.2642C104.151 63.5377 97.0755 72.8774 97.0755 76.9811C97.0755 79.6698 98.066 80.3774 100.613 80.3774C102.554 80.3774 104.573 79.1963 106.588 78.0179C108.393 76.962 110.195 75.9082 111.934 75.7076C111.331 76.9683 110.325 78.3776 109.318 79.7876C107.726 82.0176 106.132 84.249 106.132 85.8962C106.132 89.6605 109.764 91.2519 113.764 93.0048C118.485 95.0738 123.721 97.368 124.104 103.726C124.811 116.745 109.811 122.689 103.726 122.689C100.33 122.689 95.9434 122.264 93.2547 120.283L93.1866 120.244C92.095 119.624 88.2897 117.46 87.7359 111.368C87.2143 104.848 91.2585 99.1696 91.7863 98.4284C91.8051 98.4021 91.8194 98.382 91.8289 98.3683C91.8422 98.3492 91.8461 98.3426 91.8396 98.3491C85.8962 102.028 83.6321 110.236 84.9057 114.198C86.0377 117.594 88.5849 121.698 91.9811 123.255C96.934 125.377 102.311 125.519 103.726 125.519C111.792 125.519 128.491 119.575 128.915 105.142C129.21 94.7145 119.385 90.5783 113.89 88.265C111.48 87.2504 109.903 86.5865 110.377 85.8962ZM81.651 63.6792C84.3396 63.2547 87.3113 72.7359 87.3113 75.1415C87.3113 75.2144 87.3124 75.3028 87.3136 75.4037V75.4043C87.3262 76.4795 87.3555 78.9623 86.3208 78.9623C85.214 78.9623 84.2424 77.001 83.2574 75.0125C82.2274 72.9331 81.1825 70.8239 79.9528 70.8962C79.0002 70.9695 77.3645 73.5093 75.7729 75.9808C74.2909 78.282 72.8471 80.5239 72.0283 80.6604C71.3852 80.7318 70.4174 79.3241 69.4346 77.8944C68.471 76.4927 67.493 75.0701 66.7925 75C65.924 74.8553 64.7965 76.8202 63.6749 78.7747C62.6034 80.6421 61.5372 82.5 60.7076 82.5C58.8317 82.5 58.343 77.3625 57.9104 72.8143C57.625 69.814 57.364 67.0701 56.7453 66.2264C55.7691 64.6645 55.2643 64.8535 54.3017 65.2139C53.869 65.3759 53.3437 65.5726 52.6415 65.6604C50.8019 65.9434 51.3679 64.3868 51.3679 64.3868V64.2453C51.934 62.6887 54.1981 60.1415 55.4717 60.1415C57.7586 60.1415 58.6493 63.3445 59.4711 66.2997C60.1748 68.8304 60.828 71.1792 62.2642 71.1792C63.383 71.1792 64.3291 69.486 65.3244 67.7047C66.3432 65.8813 67.4136 63.9656 68.7736 63.6792C69.9723 63.4545 71.1711 64.6577 72.3488 65.8398C73.3955 66.8905 74.4257 67.9245 75.4245 67.9245C76.593 67.9245 77.6106 66.8693 78.6332 65.8091C79.5921 64.8149 80.5552 63.8162 81.651 63.6792ZM31.6981 68.6321C32.1052 70.5658 34.2691 71.182 35.8734 71.6388L35.8734 71.6388C36.4997 71.8171 37.0406 71.9712 37.3585 72.1698C37.4641 72.2332 37.5791 72.2965 37.6984 72.3622L37.6989 72.3625C38.379 72.737 39.1981 73.188 39.1981 74.151C39.1981 77.2642 32.4057 83.2076 29.434 82.5C28.673 82.3732 28.3667 81.9054 27.9039 81.1984C27.8503 81.1166 27.7946 81.0315 27.7359 80.9434C26.8868 79.8113 26.4623 78.8208 28.5849 78.2547C31.6981 77.5472 34.6698 76.4151 34.6698 74.8585C34.6035 73.7976 33.046 73.4202 31.3656 73.013C29.4596 72.5512 27.3954 72.051 27.1698 70.4717C26.4623 65.3774 32.1226 61.2736 36.0849 59.2925L36.6509 58.4434C37.3585 57.4528 38.3491 56.4623 39.6226 56.4623C41.3208 56.4623 42.1698 58.0189 42.1698 59.434C42.1698 61.9811 40.6132 63.1132 38.3491 63.1132C36.2264 63.1132 30.9906 66.3679 31.6981 68.6321ZM137.972 128.349C137.972 131.179 140.236 133.585 143.208 133.585C146.179 133.585 148.443 131.179 148.443 128.349C148.443 125.519 146.179 123.113 143.208 123.113C140.377 123.113 137.972 125.377 137.972 128.349ZM138.679 128.208C138.679 125.66 140.66 123.679 143.208 123.679C145.755 123.679 147.736 125.66 147.736 128.208C147.736 130.613 145.755 132.736 143.208 132.736C140.66 132.736 138.679 130.755 138.679 128.208ZM143.066 128.915L144.623 131.321H145.472L143.915 128.915C144.34 128.915 145.472 128.491 145.472 127.075C145.472 125.943 144.481 125.236 143.491 125.236H141.085V131.321H141.934V128.915H143.066ZM141.934 125.943H143.632C144.198 125.943 144.764 126.368 144.764 127.075C144.764 127.783 144.198 128.208 143.632 128.208H141.934V125.943Z" fill="white" fill-opacity="0.5"/>
</svg>
