<svg width="176" height="27" viewBox="0 0 176 27" fill="none" xmlns="http://www.w3.org/2000/svg">
<path d="M77.8002 13.5002C80.4002 16.6002 83.7002 22.3002 85.7002 26.6002H93.4002C91.2002 21.6002 86.8002 14.9002 84.4002 12.2002C87.8002 8.6002 90.7002 4.6002 93.2002 0.200195H85.5002C83.3002 4.0002 80.8002 7.5002 77.8002 10.7002V0.400195H71.2002V26.7002H77.8002V13.5002Z" fill="white"/>
<path d="M17.2998 0.400391C15.9998 4.00039 14.3998 7.50039 12.4998 10.8004C10.5998 7.50039 8.8998 4.00039 7.6998 0.400391H0.299805C2.4998 6.10039 5.4998 11.4004 9.2998 16.2004V26.7004H15.8998V16.2004C19.6998 11.4004 22.6998 6.10039 24.8998 0.400391H17.2998" fill="white"/>
<path d="M30.9002 0.400391C27.6002 7.00039 23.7002 18.2004 21.7002 26.7004H28.7002C29.0002 25.3004 29.4002 23.8004 29.8002 22.3004H39.1002C39.5002 23.8004 39.9002 25.3004 40.2002 26.7004H47.2002C45.2002 18.1004 41.2002 6.90039 38.0002 0.400391H30.9002M31.2002 17.1004C32.2002 13.7004 33.3002 10.2004 34.4002 7.10039C35.5002 10.3004 36.6002 13.7004 37.6002 17.1004H31.2002Z" fill="white"/>
<path d="M63.2 12.7002L57 10.1002C55.5 9.4002 54.8 9.0002 54.8 7.9002C54.8 6.6002 55.3 6.1002 56.3 5.9002C58.3 5.6002 62.5 5.9002 66.4 6.8002V1.0002C63.5 0.500195 60.6 0.200195 57.6 0.200195C56.1 0.200195 54.6 0.300195 53.2 0.500195C49.7 1.1002 48 3.2002 48 7.6002C48 10.7002 49.1 13.1002 52.2 14.4002L58.4 17.0002C59.9 17.7002 60.6 18.1002 60.6 19.2002C60.6 20.5002 60.1 21.0002 59.1 21.2002C57.4 21.4002 53 21.2002 49 20.3002V26.1002C51.9 26.6002 54.8 26.9002 57.8 26.9002C59.3 26.9002 60.8 26.8002 62.2 26.5002C65.7 25.9002 67.4 23.9002 67.4 19.4002C67.3 15.9002 66.2 14.0002 63.2 12.7002Z" fill="white"/>
<path d="M100.8 0.400391C97.4996 7.00039 93.5996 18.2004 91.5996 26.7004H98.5996C98.8996 25.3004 99.2996 23.8004 99.6996 22.3004H109C109.4 23.8004 109.8 25.3004 110.1 26.7004H117.1C115.1 18.1004 111.2 6.90039 107.9 0.400391H100.8M101.2 17.1004C102.2 13.7004 103.3 10.2004 104.4 7.10039C105.5 10.3004 106.6 13.7004 107.6 17.1004H101.2Z" fill="white"/>
<path d="M144.9 0.400391C143.9 5.80039 142.5 12.4004 140.9 18.2004C139.3 12.3004 137.7 5.70039 136.8 0.400391H130.4C129.4 5.70039 127.9 12.3004 126.3 18.2004C124.8 12.3004 123.3 5.80039 122.3 0.400391H115.3C117 8.30039 120.3 19.7004 122.7 26.7004H129.9C131 22.8004 132.3 17.5004 133.5 12.3004C134.7 17.5004 136 22.7004 137.1 26.7004H144.3C146.7 19.7004 150 8.30039 151.7 0.400391H144.9" fill="white"/>
<path d="M168.7 26.7004H175.7C173.7 18.1004 169.8 6.90039 166.5 0.400391H159.5C156.2 7.00039 152.2 18.2004 150.3 26.7004H157.3C157.6 25.3004 158 23.8004 158.4 22.3004H167.7C168 23.8004 168.4 25.4004 168.7 26.7004ZM159.8 17.1004C160.8 13.7004 161.9 10.2004 163 7.10039C164.1 10.3004 165.2 13.7004 166.2 17.1004H159.8Z" fill="white"/>
</svg>
