<?xml version="1.0" encoding="utf-8"?>
<!-- Generator: Adobe Illustrator 22.1.0, SVG Export Plug-In . SVG Version: 6.00 Build 0)  -->
<svg version="1.1" xmlns="http://www.w3.org/2000/svg" xmlns:xlink="http://www.w3.org/1999/xlink" x="0px" y="0px"
	 viewBox="0 0 500 500" style="enable-background:new 0 0 500 500;" xml:space="preserve">
<style type="text/css">
	.st0{fill:#A7ED78;}
	.st1{fill:#333A1B;}
	.st2{fill:#FFFFFF;}
	.st3{fill:none;stroke:#333A1B;stroke-width:4.8;stroke-linecap:round;stroke-miterlimit:10;}
	.st4{fill:#396B52;}
	.st5{fill:#5C9B7D;}
	.st6{fill:#49513C;}
	.st7{fill:#67BF5B;}
</style>
<g id="Layer_1">
	<g>
		<rect class="st0" width="500" height="500"/>
	</g>
</g>
<g id="whistle">
	<path class="st1" d="M255.9,403.4l4.3-31.4c0,0,0-0.1,0-0.1c0.4-3.2-0.1-6.3-1.6-9.2c-1.6-3-4.1-5.3-6.9-6.7
		c2.7-1.8,3.7-5.5,2.1-8.5c-1.7-3.2-5.6-4.5-8.9-2.8s-4.5,5.6-2.8,8.9c0.2,0.3,0.4,0.7,0.6,1c-1.7,0.2-3.4,0.8-5.1,1.6
		c-7.6,3.9-10.5,13.3-6.6,20.9c1.5,2.9,3.8,5.6,6.3,8.4c2.5,2.9,5.1,5.9,6.8,9.2c1.5,3,2.2,5.8,2,8.8c0,0.4,0.1,0.9,0.4,1.2
		c0.3,0.3,0.7,0.5,1.2,0.5l6.6-0.4C255.2,404.7,255.8,404.2,255.9,403.4z M244.9,352.2c-0.9-1.7-0.2-3.8,1.5-4.7
		c1.7-0.9,3.8-0.2,4.7,1.5c0.9,1.7,0.2,3.8-1.5,4.7S245.8,353.8,244.9,352.2z"/>
	<g>
		<circle class="st2" cx="250" cy="220.9" r="88.8"/>
		<path class="st1" d="M306.7,238.7c1.9,0,3.3,1.6,3.2,3.4c-1.9,29.2-28,52.3-59.9,52.3s-57.9-23.1-59.9-52.3
			c-0.1-1.9,1.3-3.4,3.2-3.4H306.7z"/>
	</g>
	<path class="st3" d="M190.1,304.6l55.3,41.3c1.1,0.8,2.7,0.8,3.8,0l60.7-43.7"/>
	<g>
		<path class="st4" d="M199.5,159.8"/>
	</g>
	<g>
		<path class="st5" d="M508.5,235.5"/>
		<path class="st5" d="M452.5,215.5"/>
	</g>
	<path class="st6" d="M246.5,97.6c2.5-0.1,4.9-0.1,7.4,0c2,0.1,3.7,0.1,4.9,0c0.6,0,4.8-0.3,4.9-0.9c0.1-0.4-1.5-0.5-3.1-1.2
		c-2.3-1.2-0.6-1.5-1.9-2.5c-1.2-0.9-3.1-2-8.6-2s-7.4,1.1-8.6,2c-1.3,1,0.4,1.3-1.9,2.5c-1.6,0.8-3.1,0.9-3.1,1.2
		c0.1,0.6,4.3,0.9,4.9,0.9C242.8,97.6,244.5,97.7,246.5,97.6z"/>
	<path class="st7" d="M254.1,154.5l36.2,8.8l42,27.8c0,0,0-31.8-5.8-46l-9.9-23.1c-2.8-6.4-9.2-11.8-17.9-14.9l-27.3-9.8
		c-7.1-2.6-15.1-3.9-23.2-3.9h0h0h2h0h0c-8.1,0-16,1.3-23.2,3.9l-27.3,9.8c-8.7,3.1-15.1,8.5-17.9,14.9l-9.9,23.1
		c-5.8,14.1-5.8,46-5.8,46l42-27.8l36.2-8.8H254.1z"/>
	<path class="st6" d="M335.8,182.8c-2.3-2.7-21.7-12-40.7-19.6c0.3-16.8-4-29.2-7.7-37c-3.2-6.8-6.8-12.1-7.6-11.9
		c-1.1,0.3,6.7,13.1,5.8,29.3c-0.3,5.8-1.7,10.8-3.2,14.8c-0.5-0.2-1-0.4-1.5-0.5c-9.6-3.3-20.2-5.1-31-5.1s-21.4,1.7-31,5.1
		c-0.4,0.1-0.8,0.3-1.2,0.4c-1.5-3.9-2.8-8.9-3.1-14.7c-0.9-16.2,6.9-29,5.8-29.3c-0.7-0.2-4.4,5.1-7.6,11.9
		c-3.7,7.8-7.9,20.1-7.7,36.8c-19.2,7.7-38.8,17.1-41.1,19.8c-3.3,3.8-3.3,15.2,0.6,15.9c5.2,0.9,14.4-2.6,19.4-4.9
		c9.1-4,20.7-10.3,33.6-14.1c4.7-1.4,11.3-3,19.8-4c3.6-0.4,7.3-0.6,11-0.6h2.5c3.7,0,7.4,0.2,11,0.6c8.5,1,15.1,2.6,19.8,4
		c12.9,3.9,24.6,10.2,33.6,14.1c5,2.2,14.2,5.7,19.4,4.9C339.1,198,339.1,186.6,335.8,182.8z"/>
</g>
</svg>
