<svg width="55" height="55" viewBox="0 0 55 55" fill="none" xmlns="http://www.w3.org/2000/svg">
<g clip-path="url(#clip0_510_618)">
<path fill-rule="evenodd" clip-rule="evenodd" d="M55 27.5C55 42.7028 42.7028 55 27.5 55C12.2972 55 0 42.7028 0 27.5C0 12.2972 12.2972 0 27.5 0C42.7028 0 55 12.2972 55 27.5ZM40.4717 31.4953C41.1981 30.4575 42.1321 29.0566 42.9623 26.8774C43.066 26.4623 42.5472 26.3585 42.1321 26.3066C40.783 26.2028 38.967 27.4481 38.967 27.4481C38.967 27.4481 37.6179 28.1745 37.6179 27.5519C37.6179 26.6179 38.3962 25.3726 39.2783 24.9057C39.3061 24.8918 39.3302 24.8779 39.3525 24.865C39.4136 24.8297 39.4618 24.8019 39.5377 24.8019C39.6934 24.75 39.9009 24.6981 40.1085 24.6981H40.1604C40.5236 24.6981 40.9906 24.75 41.4057 25.1132C42.3915 25.9434 43.5849 24.4906 42.8585 23.7641C42.3915 23.2972 41.3019 22.8302 40.5236 22.7783H40.3679H40.316C40.2123 22.7783 40.1085 22.7783 40.0047 22.8302C38.1887 23.2972 35.5943 26.7217 35.5943 28.2264C35.5943 29.2123 35.9575 29.4717 36.8915 29.4717C37.6031 29.4717 38.3435 29.0387 39.0823 28.6065C39.7443 28.2194 40.4049 27.833 41.0424 27.7594C40.8214 28.2217 40.4524 28.7385 40.0832 29.2554C39.4993 30.0731 38.9151 30.8913 38.9151 31.4953C38.9151 32.8755 40.2466 33.459 41.7134 34.1017C43.4447 34.8604 45.3643 35.7016 45.5047 38.033C45.7641 42.8066 40.2642 44.9858 38.033 44.9858C36.7877 44.9858 35.1792 44.8302 34.1934 44.1038L34.1684 44.0896C33.7682 43.862 32.3729 43.0687 32.1698 40.8349C31.9786 38.4444 33.4614 36.3622 33.655 36.0904C33.6715 36.0673 33.6786 36.0572 33.6745 36.0613C31.4953 37.4104 30.6651 40.4198 31.1321 41.8726C31.5472 43.1179 32.4811 44.6226 33.7264 45.1934C35.5425 45.9717 37.5142 46.0236 38.033 46.0236C40.9906 46.0236 47.1132 43.8443 47.2689 38.5519C47.3771 34.7286 43.7745 33.212 41.7597 32.3638C40.876 31.9918 40.2977 31.7484 40.4717 31.4953ZM29.9387 23.3491C30.9245 23.1934 32.0142 26.6698 32.0142 27.5519C32.0142 27.5786 32.0145 27.6112 32.015 27.6482C32.0196 28.0425 32.0304 28.9528 31.6509 28.9528C31.2451 28.9528 30.8889 28.2337 30.5277 27.5046C30.15 26.7421 29.7669 25.9688 29.316 25.9953C28.9667 26.0222 28.367 26.9534 27.7834 27.8596C27.24 28.7034 26.7106 29.5254 26.4104 29.5755C26.1746 29.6017 25.8197 29.0855 25.4594 28.5613C25.106 28.0473 24.7474 27.5257 24.4906 27.5C24.1721 27.4469 23.7587 28.1674 23.3475 28.8841C22.9546 29.5688 22.5636 30.25 22.2594 30.25C21.5716 30.25 21.3924 28.3663 21.2338 26.6986C21.1292 25.5985 21.0335 24.5924 20.8066 24.283C20.4487 23.7103 20.2636 23.7796 19.9106 23.9118C19.752 23.9712 19.5594 24.0433 19.3019 24.0755C18.6274 24.1792 18.8349 23.6085 18.8349 23.6085V23.5566C19.0425 22.9858 19.8726 22.0519 20.3396 22.0519C21.1782 22.0519 21.5047 23.2263 21.8061 24.3099C22.0641 25.2378 22.3036 26.0991 22.8302 26.0991C23.2404 26.0991 23.5873 25.4782 23.9523 24.825C24.3258 24.1565 24.7183 23.454 25.217 23.3491C25.6565 23.2666 26.0961 23.7078 26.5279 24.1413C26.9117 24.5265 27.2894 24.9057 27.6557 24.9057C28.0841 24.9057 28.4572 24.5188 28.8322 24.13C29.1838 23.7655 29.5369 23.3993 29.9387 23.3491ZM11.6226 25.1651C11.7719 25.8741 12.5654 26.1001 13.1536 26.2676C13.3832 26.3329 13.5816 26.3894 13.6981 26.4623C13.7369 26.4855 13.7791 26.5088 13.8229 26.5329C14.0723 26.6702 14.3726 26.8356 14.3726 27.1887C14.3726 28.3302 11.8821 30.5094 10.7925 30.25C10.5134 30.2035 10.4011 30.032 10.2314 29.7727C10.2118 29.7427 10.1913 29.7115 10.1698 29.6792C9.85849 29.2642 9.70283 28.9009 10.4811 28.6934C11.6226 28.434 12.7123 28.0189 12.7123 27.4481C12.688 27.0591 12.1169 26.9208 11.5007 26.7715C10.8019 26.6021 10.045 26.4187 9.96227 25.8396C9.70283 23.9717 11.7783 22.467 13.2311 21.7406L13.4387 21.4292C13.6981 21.066 14.0613 20.7028 14.5283 20.7028C15.1509 20.7028 15.4623 21.2736 15.4623 21.7925C15.4623 22.7264 14.8915 23.1415 14.0613 23.1415C13.283 23.1415 11.3632 24.3349 11.6226 25.1651ZM50.5896 47.0613C50.5896 48.0991 51.4198 48.9811 52.5094 48.9811C53.5991 48.9811 54.4292 48.0991 54.4292 47.0613C54.4292 46.0236 53.5991 45.1415 52.5094 45.1415C51.4717 45.1415 50.5896 45.9717 50.5896 47.0613ZM50.8491 47.0094C50.8491 46.0755 51.5755 45.3491 52.5094 45.3491C53.4434 45.3491 54.1698 46.0755 54.1698 47.0094C54.1698 47.8915 53.4434 48.6698 52.5094 48.6698C51.5755 48.6698 50.8491 47.9434 50.8491 47.0094ZM52.4575 47.2689L53.0283 48.1509H53.3396L52.7689 47.2689C52.9245 47.2689 53.3396 47.1132 53.3396 46.5943C53.3396 46.1792 52.9764 45.9198 52.6132 45.9198H51.7311V48.1509H52.0425V47.2689H52.4575ZM52.0425 46.1792H52.6651C52.8726 46.1792 53.0802 46.3349 53.0802 46.5943C53.0802 46.8538 52.8726 47.0094 52.6651 47.0094H52.0425V46.1792Z" fill="white"/>
</g>
<defs>
<clipPath id="clip0_510_618">
<rect width="55" height="55" fill="white"/>
</clipPath>
</defs>
</svg>
